<?xml version="1.0" encoding="UTF-8"?>
<svg version="1.1" xmlns="http://www.w3.org/2000/svg" width="512" height="512">
<path d="M0 0 C93.72 0 187.44 0 284 0 C284.061875 51.170625 284.061875 51.170625 284.125 103.375 C284.14320801 114.14302246 284.16141602 124.91104492 284.18017578 136.00537109 C284.18920898 149.16333008 284.18920898 149.16333008 284.19088745 155.32485962 C284.19274931 159.6244412 284.20023866 163.9239733 284.21115112 168.22354126 C284.22489847 173.71303114 284.22897686 179.20244936 284.22614455 184.69195485 C284.22673656 186.70339396 284.23068511 188.71483566 284.23843026 190.72625995 C284.34313719 219.25074288 284.34313719 219.25074288 273.8125 230.75 C266.5300014 237.60224157 258.19384265 240.14243764 248.38671875 240.09765625 C247.13955078 240.09443359 245.89238281 240.09121094 244.60742188 240.08789062 C243.31384766 240.07951172 242.02027344 240.07113281 240.6875 240.0625 C238.71813477 240.05573242 238.71813477 240.05573242 236.70898438 240.04882812 C233.4726099 240.03705949 230.23632822 240.0206176 227 240 C227.00888245 240.92992767 227.01776489 241.85985535 227.0269165 242.81796265 C227.10827767 251.61503242 227.16809683 260.41202508 227.20724869 269.20938683 C227.22805434 273.73138583 227.25624229 278.25307919 227.30175781 282.77490234 C227.34546789 287.14509681 227.36918982 291.51499873 227.37950897 295.88539505 C227.38685547 297.54624659 227.40120073 299.20708353 227.42292023 300.8678093 C227.57201294 312.74871743 226.71394828 323.99998776 218 333 C208.49187833 340.62410497 198.89027032 342.23617706 187 341 C177.49583653 338.75157258 171.60859837 333.36077012 166.296875 325.37890625 C163.4076756 320.07913988 162.71160043 315.20944029 162.77294922 309.25048828 C162.77265717 308.49858719 162.77236511 307.7466861 162.77206421 306.97200012 C162.77344948 304.50465055 162.78897252 302.03760885 162.8046875 299.5703125 C162.80842049 297.85253057 162.81126611 296.1347465 162.81326294 294.41696167 C162.82087689 289.90915994 162.84050605 285.40148833 162.8626709 280.89373779 C162.88678699 275.47800383 162.89592097 270.06222622 162.90757751 264.64645386 C162.92693183 256.43087891 162.96526994 248.21558913 163 240 C149.14 240 135.28 240 121 240 C121.04640625 245.44242188 121.0928125 250.88484375 121.140625 256.4921875 C121.1610815 259.95574844 121.1803385 263.41923409 121.1953125 266.8828125 C121.21915363 272.3712526 121.24724992 277.85942385 121.30175781 283.34765625 C121.3454621 287.77620501 121.36918864 292.20446514 121.37950897 296.63321304 C121.38685649 298.31639265 121.40120378 299.99955783 121.42292023 301.68261337 C121.55614424 312.44304673 120.98619931 321.07764673 114.8125 330.25 C106.56268975 338.31648113 98.50655393 341.42490833 87.04492188 341.36352539 C78.07376176 341.13183221 72.24863031 337.96186503 65.7890625 331.9140625 C56.17770028 321.63116406 56.71467922 309.4007523 56.8046875 296.15234375 C56.80842382 294.52853063 56.81126786 292.90471524 56.81326294 291.28089905 C56.8208507 287.03453196 56.84045671 282.78830458 56.8626709 278.54199219 C56.88323472 274.19793588 56.89228706 269.85385671 56.90234375 265.50976562 C56.92370782 257.00644675 56.95778414 248.50324082 57 240 C56.20416504 240.01571045 55.40833008 240.0314209 54.58837891 240.04760742 C50.93399343 240.11050425 47.27972239 240.14916375 43.625 240.1875 C42.37332031 240.21263672 41.12164062 240.23777344 39.83203125 240.26367188 C27.21170886 240.36278435 18.46959651 238.21023552 9.3125 229.37109375 C1.22199467 220.65357426 -0.16271458 210.75919095 -0.12025452 199.26173401 C-0.12111053 198.40842499 -0.12196655 197.55511597 -0.12284851 196.6759491 C-0.1244975 193.82113526 -0.11899016 190.9663807 -0.11352539 188.11157227 C-0.11321893 186.0281598 -0.11335276 183.94474722 -0.11389065 181.8613348 C-0.11411616 176.28841467 -0.10832552 170.71551607 -0.10128021 165.14260101 C-0.09558003 159.91078118 -0.0953168 154.67896655 -0.09460449 149.44714355 C-0.08935977 134.15225953 -0.07539859 118.85737949 -0.0625 103.5625 C-0.041875 69.386875 -0.02125 35.21125 0 0 Z " fill="#000000" transform="translate(114,171)"/>
<path d="M0 0 C3.3125 0.625 3.3125 0.625 4.63647461 2.07250977 C9.65341939 9.83904641 13.89897524 18.00516096 18.1875 26.1875 C18.97872026 27.68838646 19.77038354 29.18903946 20.5625 30.68945312 C22.48428273 34.33196509 24.40005002 37.97757998 26.3125 41.625 C30.493231 40.83635097 34.35172891 39.64608776 38.375 38.25 C54.77365964 32.68709777 70.76924034 30.22532676 88.0625 30.3125 C88.81362061 30.31432281 89.56474121 30.31614563 90.33862305 30.31802368 C101.28743026 30.36277397 111.67317949 30.82692506 122.3125 33.625 C123.0746582 33.81787598 123.83681641 34.01075195 124.62207031 34.20947266 C138.38621208 37.70952865 138.38621208 37.70952865 144.1484375 40.28125 C147.19978659 41.82045 147.19978659 41.82045 150.3125 41.625 C150.79605957 40.70275635 151.27961914 39.7805127 151.77783203 38.83032227 C153.59558372 35.36673908 155.41990292 31.9066497 157.24609375 28.44750977 C158.03138189 26.95787609 158.81495238 25.46733548 159.59667969 23.97583008 C169.81971689 4.47754366 169.81971689 4.47754366 173.3125 0.625 C176.5625 -0.0625 176.5625 -0.0625 179.3125 0.625 C180.3025 1.615 180.3025 1.615 181.3125 2.625 C180.9789019 6.83177821 179.83320723 10.04594886 177.87109375 13.75 C177.37319336 14.69786377 176.87529297 15.64572754 176.36230469 16.62231445 C175.83024414 17.61320068 175.29818359 18.60408691 174.75 19.625 C174.21149414 20.64360107 173.67298828 21.66220215 173.11816406 22.71166992 C169.44421149 29.62415583 165.63572231 36.44420468 161.640625 43.17578125 C160.15360347 45.45366686 160.15360347 45.45366686 160.3125 47.625 C162.57945994 49.08189959 164.84372164 50.42752508 167.1875 51.75 C173.71150528 55.55598831 179.61410283 59.64116375 185.3125 64.625 C186.28960937 65.46933594 187.26671875 66.31367187 188.2734375 67.18359375 C214.21878635 90.00828345 228.49575991 120.39624477 231.20825195 154.59887695 C231.32860866 156.9380815 231.3125 159.28270121 231.3125 161.625 C136.9325 161.625 42.5525 161.625 -54.6875 161.625 C-54.6875 131.70717475 -45.1753067 104.49654162 -25.6875 81.625 C-24.94757813 80.74585937 -24.20765625 79.86671875 -23.4453125 78.9609375 C-12.00485712 65.81052082 1.21645014 56.10201261 16.3125 47.625 C14.97694081 44.14951516 13.46562765 40.85990699 11.73828125 37.5625 C11.2383667 36.60649902 10.73845215 35.65049805 10.22338867 34.66552734 C9.69592041 33.66215332 9.16845215 32.6587793 8.625 31.625 C8.08915283 30.59713379 7.55330566 29.56926758 7.0012207 28.51025391 C4.69954896 24.10690482 2.39152567 19.71470303 -0.0703125 15.3984375 C-0.70710938 14.27695313 -1.34390625 13.15546875 -2 12 C-2.82951172 10.58847656 -2.82951172 10.58847656 -3.67578125 9.1484375 C-4.87649017 6.15361912 -4.68189534 4.65604463 -3.6875 1.625 C-2.6875 0.625 -2.6875 0.625 0 0 Z M14.3125 90.625 C11.99838675 94.41823719 12.10151218 97.13218481 12.7109375 101.43359375 C13.67803634 104.95659666 15.38236288 106.54134694 18.3125 108.625 C22.2384913 109.99056219 24.01740757 109.72002976 28 108.4375 C32.04456608 106.32095697 32.04456608 106.32095697 34.3125 102.625 C34.96819413 98.76450874 35.21527935 95.23662833 33.2578125 91.7421875 C31.4931644 89.58075462 29.82189153 87.87969577 27.3125 86.625 C21.47755721 86.146726 18.53201929 86.15727369 14.3125 90.625 Z M143.3125 91.625 C141.56970213 95.11059574 141.74005715 98.82187395 142.3125 102.625 C144.82784602 106.20746252 146.77500864 107.40424462 150.8125 109.0625 C155.65271363 109.84039148 157.64848011 108.78056937 161.5625 106.0625 C164.14769513 102.46169249 164.6475453 99.01866225 164.3125 94.625 C162.35414766 90.77823647 160.89800738 89.01533825 157.3125 86.625 C150.58709251 85.85323193 148.02425231 86.7983269 143.3125 91.625 Z " fill="#000000" transform="translate(167.6875,-0.625)"/>
<path d="M0 0 C6.43162596 6.43162596 9.93040251 13.70820885 9.94819641 22.89118958 C9.95528122 24.11489761 9.96236603 25.33860565 9.96966553 26.59939575 C9.96737205 27.94232215 9.96486239 29.28524819 9.9621582 30.62817383 C9.96650897 32.05286424 9.97169333 33.47755232 9.97764587 34.90223694 C9.99100991 38.76189346 9.9916173 42.62145189 9.98908257 46.48112702 C9.98801081 49.70902912 9.99290163 52.93691154 9.997688 56.16480941 C10.00877483 63.78444853 10.00922564 71.40403836 10.00317383 79.02368164 C9.99713794 86.86942805 10.0094371 94.71499494 10.0307439 102.56071073 C10.04839304 109.30912344 10.05435593 116.05747918 10.05110615 122.8059141 C10.04929797 126.83089784 10.05188258 130.8557536 10.06582069 134.88071632 C10.078448 138.66879849 10.07640898 142.45660223 10.06340981 146.2446804 C10.06105486 147.62931795 10.06373964 149.01397538 10.07203293 150.39859009 C10.13364628 161.4914853 8.98147951 169.92467099 1.76953125 178.609375 C-4.9006405 185.26703236 -12.86379271 188.54750093 -22.19140625 188.75 C-30.8669908 188.39544227 -37.62008486 185.89829577 -44.1875 180.1875 C-44.88875 179.3625 -45.59 178.5375 -46.3125 177.6875 C-46.993125 176.98625 -47.67375 176.285 -48.375 175.5625 C-54.27955681 166.80089958 -54.89180203 157.7554301 -54.81420898 147.45458984 C-54.81800111 146.05871539 -54.82350847 144.66284472 -54.83058167 143.26698303 C-54.84443475 139.50872249 -54.83344004 135.75092495 -54.81687045 131.99269056 C-54.80292362 128.04245698 -54.80949071 124.09224767 -54.81300354 120.14199829 C-54.81569747 113.51321024 -54.80229857 106.88460412 -54.77905273 100.25585938 C-54.75242612 92.61050482 -54.75070591 84.96545379 -54.7624411 77.32006872 C-54.77324726 69.93837276 -54.76701102 62.55678575 -54.75288582 55.17509842 C-54.74715278 52.04532903 -54.74718738 48.91564008 -54.75195122 45.7858696 C-54.75674939 42.09699854 -54.74650295 38.40845686 -54.72499657 34.71964836 C-54.71684614 32.73313339 -54.72324846 30.74657509 -54.73019409 28.76005554 C-54.6407294 17.9236396 -52.56225254 9.01766922 -45.3125 0.6875 C-31.289921 -10.88669219 -14.42258731 -10.8537328 0 0 Z " fill="#000000" transform="translate(463.3125,173.3125)"/>
<path d="M0 0 C2.875 2.5 2.875 2.5 5 5 C6.0209375 6.051875 6.0209375 6.051875 7.0625 7.125 C12.96705681 15.88660042 13.57930203 24.9320699 13.50170898 35.23291016 C13.50550111 36.62878461 13.51100847 38.02465528 13.51808167 39.42051697 C13.53193475 43.17877751 13.52094004 46.93657505 13.50437045 50.69480944 C13.49042362 54.64504302 13.49699071 58.59525233 13.50050354 62.54550171 C13.50319747 69.17428976 13.48979857 75.80289588 13.46655273 82.43164062 C13.43992612 90.07699518 13.43820591 97.72204621 13.4499411 105.36743128 C13.46074726 112.74912724 13.45451102 120.13071425 13.44038582 127.51240158 C13.43465278 130.64217097 13.43468738 133.77185992 13.43945122 136.9016304 C13.44424939 140.59050146 13.43400295 144.27904314 13.41249657 147.96785164 C13.40434614 149.95436661 13.41074846 151.94092491 13.41769409 153.92744446 C13.3282294 164.7638604 11.24975254 173.66983078 4 182 C-4.52890695 189.03973272 -13.39152136 191.6227999 -24.4296875 190.82421875 C-34.73435831 189.00898314 -41.48649713 183.2126567 -47.40625 174.87890625 C-51.66590676 167.18437922 -51.29086739 159.65149714 -51.2746582 151.03759766 C-51.27901035 149.62261182 -51.28419517 148.20762833 -51.29014587 146.79264832 C-51.3034937 142.9640415 -51.30411922 139.13553366 -51.30158257 135.30690813 C-51.30050991 132.10380909 -51.30540382 128.90072984 -51.310188 125.69763505 C-51.32126879 118.13694987 -51.32172876 110.57631437 -51.31567383 103.015625 C-51.30963574 95.23177327 -51.32194408 87.44810237 -51.3432439 79.66428149 C-51.36089299 72.96680352 -51.36685602 66.26938295 -51.36360615 59.57188261 C-51.36179828 55.57821251 -51.3643796 51.5846714 -51.37832069 47.59102249 C-51.39094829 43.83329502 -51.38890872 40.07584822 -51.37590981 36.31812477 C-51.37243823 34.29337957 -51.38368579 32.26862559 -51.39547729 30.24391174 C-51.32969594 18.78090894 -49.26862562 10.26862562 -41 2 C-28.56743395 -7.76248475 -13.29657516 -8.57532746 0 0 Z " fill="#000000" transform="translate(90,171)"/>
</svg>
